<svg width="23" height="24" viewBox="0 0 23 24" fill="none" xmlns="http://www.w3.org/2000/svg">
<path d="M0.381784 21.6335L3.80318 23.866C3.83667 23.8884 3.87016 23.8995 3.90364 23.9107C3.93155 23.9219 3.95946 23.9386 3.98737 23.9498C4.07667 23.9777 4.16597 24 4.26085 24H20.9325C21.4683 24 21.9874 23.7767 22.3557 23.386C22.7241 22.9954 22.9139 22.4651 22.8804 21.9293L21.8367 5.25209C21.8088 4.81116 21.4404 4.46512 20.9995 4.46512H18.0134C17.0032 1.8586 14.4748 0 11.5111 0C8.54737 0 6.01899 1.8586 5.00876 4.46512H2.0283C2.01155 4.46512 1.99481 4.4707 1.97806 4.4707C1.95016 4.4707 1.91667 4.47628 1.88876 4.48186L1.80504 4.49861C1.77713 4.50419 1.74923 4.51535 1.7269 4.52651C1.69899 4.53767 1.67109 4.54884 1.64318 4.56558C1.62085 4.57674 1.59853 4.58791 1.5762 4.60465C1.52725 4.6342 1.48224 4.66983 1.44225 4.7107C1.43109 4.72186 1.41434 4.73302 1.3976 4.74977C1.39202 4.75535 1.38644 4.76651 1.38085 4.77209L1.33062 4.83907C1.31388 4.8614 1.29713 4.88372 1.28597 4.90605C1.26923 4.93395 1.25806 4.96744 1.2469 5.00093C1.24132 5.02326 1.23016 5.04 1.22457 5.06233C1.21341 5.1014 1.20783 5.14047 1.20225 5.17953C1.20225 5.19628 1.19667 5.21302 1.19109 5.23535V5.24093L0.00224938 20.8688C-0.0200762 21.1702 0.12504 21.466 0.381784 21.6335ZM11.5167 1.67442C13.5316 1.67442 15.2897 2.80744 16.1827 4.46512H6.85062C7.74364 2.80744 9.50178 1.67442 11.5167 1.67442ZM4.59574 6.13954C4.56225 6.41302 4.53992 6.69209 4.53992 6.97674V9.2093C4.53992 9.67256 4.91388 10.0465 5.37713 10.0465C5.84039 10.0465 6.21434 9.67256 6.21434 9.2093V6.97674C6.21434 6.69209 6.24225 6.41302 6.2869 6.13954H16.7464C16.7911 6.41302 16.819 6.69209 16.819 6.97674V9.2093C16.819 9.67256 17.1929 10.0465 17.6562 10.0465C18.1195 10.0465 18.4934 9.67256 18.4934 9.2093V6.97674C18.4934 6.69209 18.4711 6.41302 18.4376 6.13954H20.2181L21.2115 22.0298C21.2171 22.1358 21.1669 22.2028 21.139 22.2363C21.1055 22.2698 21.0385 22.3256 20.9325 22.3256H4.9976L2.97155 6.13954H4.59574ZM2.22923 13.6744L3.20597 21.4716L1.71016 20.4949L2.22923 13.6744Z" fill="#0F2C3D"/>
</svg>
