<svg width="23" height="24" viewBox="0 0 23 24" fill="none" xmlns="http://www.w3.org/2000/svg">
<path d="M0.498972 21.6335L3.92037 23.866C3.95386 23.8884 3.98734 23.8995 4.02083 23.9107C4.04874 23.9219 4.07665 23.9386 4.10455 23.9498C4.19386 23.9777 4.28316 24 4.37804 24H21.0497C21.5855 24 22.1046 23.7767 22.4729 23.386C22.8413 22.9954 23.0311 22.4651 22.9976 21.9293L21.9539 5.25209C21.9259 4.81116 21.5576 4.46512 21.1166 4.46512H18.1306C17.1204 1.8586 14.592 0 11.6283 0C8.66455 0 6.13618 1.8586 5.12595 4.46512H2.14548C2.12874 4.46512 2.11199 4.4707 2.09525 4.4707C2.06734 4.4707 2.03386 4.47628 2.00595 4.48186L1.92223 4.49861C1.89432 4.50419 1.86641 4.51535 1.84409 4.52651C1.81618 4.53767 1.78827 4.54884 1.76037 4.56558C1.73804 4.57674 1.71572 4.58791 1.69339 4.60465C1.64444 4.6342 1.59943 4.66983 1.55944 4.7107C1.54827 4.72186 1.53153 4.73302 1.51479 4.74977C1.5092 4.75535 1.50362 4.76651 1.49804 4.77209L1.44781 4.83907C1.43106 4.8614 1.41432 4.88372 1.40316 4.90605C1.38641 4.93395 1.37525 4.96744 1.36409 5.00093C1.35851 5.02326 1.34734 5.04 1.34176 5.06233C1.3306 5.1014 1.32502 5.14047 1.31944 5.17953C1.31944 5.19628 1.31386 5.21302 1.30827 5.23535V5.24093L0.119437 20.8688C0.0971113 21.1702 0.242227 21.466 0.498972 21.6335ZM11.6339 1.67442C13.6487 1.67442 15.4069 2.80744 16.2999 4.46512H6.96781C7.86083 2.80744 9.61897 1.67442 11.6339 1.67442ZM4.71292 6.13954C4.67944 6.41302 4.65711 6.69209 4.65711 6.97674V9.2093C4.65711 9.67256 5.03106 10.0465 5.49432 10.0465C5.95758 10.0465 6.33153 9.67256 6.33153 9.2093V6.97674C6.33153 6.69209 6.35944 6.41302 6.40409 6.13954H16.8636C16.9083 6.41302 16.9362 6.69209 16.9362 6.97674V9.2093C16.9362 9.67256 17.3101 10.0465 17.7734 10.0465C18.2366 10.0465 18.6106 9.67256 18.6106 9.2093V6.97674C18.6106 6.69209 18.5883 6.41302 18.5548 6.13954H20.3352L21.3287 22.0298C21.3343 22.1358 21.2841 22.2028 21.2562 22.2363C21.2227 22.2698 21.1557 22.3256 21.0497 22.3256H5.11479L3.08874 6.13954H4.71292ZM2.34641 13.6744L3.32316 21.4716L1.82734 20.4949L2.34641 13.6744Z" fill="white"/>
</svg>
