<svg width="24" height="24" viewBox="0 0 24 24" fill="none" xmlns="http://www.w3.org/2000/svg">
<path d="M12 0C5.36842 0 0 5.36842 0 12C0 18.6316 5.36842 24 12 24C18.6316 24 24 18.6316 24 12C24 5.36842 18.6316 0 12 0ZM12 22.7368C6.06316 22.7368 1.26316 17.9368 1.26316 12C1.26316 6.06316 6.06316 1.26316 12 1.26316C17.9368 1.26316 22.7368 6.06316 22.7368 12C22.7368 17.9368 17.9368 22.7368 12 22.7368ZM18.1579 12C18.1579 12.3474 17.8737 12.6316 17.5263 12.6316H6.47368C6.12632 12.6316 5.84211 12.3474 5.84211 12C5.84211 11.6526 6.12632 11.3684 6.47368 11.3684H17.5263C17.8737 11.3684 18.1579 11.6526 18.1579 12ZM18.1579 15.7895C18.1579 16.1368 17.8737 16.4211 17.5263 16.4211H6.47368C6.12632 16.4211 5.84211 16.1368 5.84211 15.7895C5.84211 15.4421 6.12632 15.1579 6.47368 15.1579H17.5263C17.8737 15.1579 18.1579 15.4421 18.1579 15.7895ZM18.1579 8.21053C18.1579 8.55789 17.8737 8.8421 17.5263 8.8421H6.47368C6.12632 8.8421 5.84211 8.55789 5.84211 8.21053C5.84211 7.86316 6.12632 7.57895 6.47368 7.57895H17.5263C17.8737 7.57895 18.1579 7.86316 18.1579 8.21053Z" fill="#FFFFFF"/>
</svg>
