<svg width="36" height="36" viewBox="0 0 36 36" fill="none" xmlns="http://www.w3.org/2000/svg">
<circle cx="18" cy="18" r="18" fill="#066572"/>
<path d="M11.4015 17.9604C12.3644 17.4691 12.7738 15.927 12.316 14.5162C11.8581 13.1054 10.7064 12.36 9.74348 12.8513C8.78058 13.3427 8.37116 14.8847 8.82901 16.2955C9.28686 17.7063 10.4386 18.4517 11.4015 17.9604Z" stroke="white" stroke-width="1.5"/>
<path d="M24.0872 21.2095C24.9726 21.8926 26.2064 21.3947 26.8429 20.0974C27.4794 18.8001 27.2777 17.1947 26.3922 16.5116C25.5068 15.8285 24.2731 16.3264 23.6365 17.6237C23 18.921 23.2018 20.5265 24.0872 21.2095Z" stroke="white" stroke-width="1.5"/>
<path d="M15.6814 14.4706C16.912 14.4706 17.9097 13.0221 17.9097 11.2353C17.9097 9.44849 16.912 8 15.6814 8C14.4508 8 13.4531 9.44849 13.4531 11.2353C13.4531 13.0221 14.4508 14.4706 15.6814 14.4706Z" stroke="white" stroke-width="1.5"/>
<path d="M21.0241 15.6978C22.1422 16.1619 23.3898 15.2457 23.8106 13.6515C24.2314 12.0573 23.6661 10.3887 22.548 9.92462C21.4299 9.46055 20.1823 10.3767 19.7615 11.9709C19.3407 13.5651 19.906 15.2337 21.0241 15.6978Z" stroke="white" stroke-width="1.5"/>
<path d="M14.1272 18.9712C15.7217 16.2871 18.9282 16.2871 20.5227 18.9712L23.0011 23.1432C24.1925 25.1488 23.051 28 21.0566 28C20.7971 28 20.5387 27.9601 20.287 27.8811L19.093 27.5065C17.9312 27.142 16.7167 27.1315 15.5509 27.4757L14.1208 27.8979C13.8911 27.9658 13.656 28 13.4201 28C11.4972 28 10.3966 25.2511 11.5453 23.3175L14.1272 18.9712Z" stroke="white" stroke-width="1.5"/>
</svg>
